<svg width="100%" height="100%" viewBox="0 0 1920 1080" version="1.1" xml:space="preserve"
     xmlns="http://www.w3.org/2000/svg">
     <defs>
          <filter id="_shadow">
               <feDropShadow dx="0" dy="0" stdDeviation="15" flood-opacity="0.8"/>
          </filter>
         <filter id="_blur">
               <feGaussianBlur in="SourceGraphic" stdDeviation="50"/>
          </filter>
         <linearGradient id="_Linear1" x1="0" y1="0" x2="1" y2="0" gradientUnits="userSpaceOnUse"
                         gradientTransform="matrix(-198.854,-1095.65,2727.5,-495.027,1408.69,1098.58)">
               <stop offset="0" style="stop-color:rgb(0,153,255);stop-opacity:0.64" id="stop60"/>
             <stop offset="0.51" style="stop-color:rgb(190,143,65);stop-opacity:0.64" id="stop61"/>
             <stop offset="1" style="stop-color:rgb(255,139,0);stop-opacity:0.64" id="stop62"/>
          </linearGradient>
         <linearGradient id="_Linear2" x1="0" y1="0" x2="1" y2="0" gradientUnits="userSpaceOnUse"
                         gradientTransform="matrix(-198.854,-1095.65,2727.5,-495.027,1408.69,1098.58)">
               <stop offset="0" style="stop-color:rgb(255,139,0);stop-opacity:0.64" id="stop63"/>
             <stop offset="1" style="stop-color:rgb(255,139,0);stop-opacity:0.64" id="stop64"/>
          </linearGradient>
         <linearGradient id="_Linear3" x1="0" y1="0" x2="1" y2="0" gradientUnits="userSpaceOnUse"
                         gradientTransform="matrix(231.552,1213.45,-3020.75,576.425,1268.4854,-0.86459)">
               <stop offset="0" style="stop-color:rgb(255,203,0);stop-opacity:0.46" id="stop65"/>
             <stop offset="0.51" style="stop-color:rgb(255,155,0);stop-opacity:0.46" id="stop66"/>
             <stop offset="1" style="stop-color:rgb(255,139,0);stop-opacity:0.46" id="stop67"/>
          </linearGradient>
         <linearGradient id="_Linear4" x1="0" y1="0" x2="1" y2="0" gradientUnits="userSpaceOnUse"
                         gradientTransform="matrix(1227.03,-1195.48,1015.5,1042.31,-38.448,1154.2471)">
               <stop offset="0" style="stop-color:rgb(1,0,159);stop-opacity:0.75" id="stop68"/>
             <stop offset="1" style="stop-color:rgb(0,144,255);stop-opacity:0.49" id="stop69"/>
          </linearGradient>
         <linearGradient id="_Linear5" x1="0" y1="0" x2="1" y2="0" gradientUnits="userSpaceOnUse"
                         gradientTransform="matrix(-198.854,-1095.65,2727.5,-495.027,1331.6379,1098.58)">
               <stop offset="0" style="stop-color:rgb(0,153,255);stop-opacity:0.64" id="stop70"/>
             <stop offset="0.51" style="stop-color:rgb(190,143,65);stop-opacity:0.64" id="stop71"/>
             <stop offset="1" style="stop-color:rgb(255,139,0);stop-opacity:0.64" id="stop72"/>
          </linearGradient>
         <linearGradient id="_Linear6" x1="0" y1="0" x2="1" y2="0" gradientUnits="userSpaceOnUse"
                         gradientTransform="matrix(-198.854,-1095.65,2727.5,-495.027,1408.69,1098.58)">
               <stop offset="0" style="stop-color:rgb(255,139,0);stop-opacity:0.64" id="stop73"/>
             <stop offset="1" style="stop-color:rgb(255,139,0);stop-opacity:0.64" id="stop74"/>
          </linearGradient>
         <linearGradient id="_Linear7" x1="0" y1="0" x2="1" y2="0" gradientUnits="userSpaceOnUse"
                         gradientTransform="matrix(-198.854,-1095.65,2727.5,-495.027,1408.69,1098.58)">
               <stop offset="0" style="stop-color:rgb(255,139,0);stop-opacity:0.64" id="stop75"/>
             <stop offset="1" style="stop-color:rgb(255,139,0);stop-opacity:0.64" id="stop76"/>
          </linearGradient>
         <linearGradient id="_Linear8" x1="0" y1="0" x2="1" y2="0" gradientUnits="userSpaceOnUse"
                         gradientTransform="matrix(-198.854,-1095.65,2727.5,-495.027,1408.69,1098.58)">
               <stop offset="0" style="stop-color:rgb(0,104,255);stop-opacity:0.64" id="stop77"/>
             <stop offset="0.51" style="stop-color:rgb(190,155,65);stop-opacity:0.64" id="stop78"/>
             <stop offset="1" style="stop-color:rgb(255,172,0);stop-opacity:0.64" id="stop79"/>
          </linearGradient>
     </defs>
    <g id="bg" filter="url(#_blur)">
          <path d="m 1254.401,-35.3649 -220.52,-36.375 810.78,1357.427 352.38,-595.625 z"
                style="fill:#0090ff;fill-opacity:0.86" id="path1"/>
        <path d="m 1254.401,-35.3649 -26.11,-1.635 834.6968,1144.411 234.2288,-673.55392 z"
              style="fill:#0090ff;fill-opacity:0.86" id="path2"/>
        <path d="m 1110.991,-21.7189 23.49,0.396 -264.25,1158.55 -692.065,76.73 z"
              style="fill:#0090ff;fill-opacity:0.56" id="path3"/>
        <path d="m 1249.201,-17.8129 -35.95,18.594 1073.02,567.136 -196.56,-576.167 z"
              style="fill:#0090ff;fill-opacity:0.86" id="path4"/>
        <path d="M1154.25,-3.323L1276.9,-2.958L1600.25,1106.95L1264.27,1094.38L1154.25,-3.323Z"
              style="fill:url(#_Linear1);" id="path5"/>
        <path d="M1154.25,-3.323L1276.9,-2.958L1600.25,1106.95L1264.27,1094.38L1154.25,-3.323Z"
              style="fill:url(#_Linear2);" id="path6"/>
        <path d="m 1165.0754,-7.99992 56.39,4.479 606.6802,1188.39722 -476.2402,-93.0692 z" style="fill:url(#_Linear3)"
              id="path7"/>
        <path d="m 1146.731,-45.0309 56.39,4.479 -265.94,1125.979 -439.63,-6.12 z"
              style="fill:#0090ff;fill-opacity:0.46" id="path8"/>
        <path d="m 1146.731,-45.0309 56.39,4.479 1.58,1144.079 -439.63,-6.11 z" style="fill:#0090ff;fill-opacity:0.46"
              id="path9"/>
        <path d="m 1146.731,-45.0309 56.39,4.479 -1563.31439,1056.2483 104.46841,-1033.964215 z"
              style="display:inline;fill:#0090ff;fill-opacity:0.86" id="path10"/>
        <path d="m 1146.731,-45.0309 56.39,4.479 -668.88,1243.329 -439.627,-6.11 z"
              style="fill:#0090ff;fill-opacity:0.46" id="path11"/>
        <path d="m 1146.731,-45.0309 56.39,4.479 -1372.18668,1132.3207 -212.23981,-637.42934 z"
              style="fill:#0090ff;fill-opacity:0.46" id="path12"/>
        <path d="M 1203.121,-40.5519 214.49337,1199.8024 -284.62615,1138.7671 Z" style="fill:url(#_Linear4)"
              id="path13"/>
        <path d="m 1146.731,-45.0309 56.39,4.479 -200.59,1258.029 -439.63,-6.11 z"
              style="fill:#0090ff;fill-opacity:0.46" id="path14"/>
        <path d="m 1146.731,-45.0309 56.39,4.479 -1228.486,1272.769 -285.04007,-364.83025 z"
              style="fill:#0090ff;fill-opacity:0.46" id="path15"/>
        <path d="m 1141.3279,-3.323 58.52,0.365 141.83,1172.268 -238.85,6.81 z" style="fill:url(#_Linear5)"
              id="path16"/>
        <path d="M 1224.41,-34.594 1191.06,-5.271 1046.3449,1235.5556 1264.27,1094.38 Z" style="fill:url(#_Linear6)"
              id="path17"/>
        <path d="m 1168.41,-1.656 13.46,-28 -1548.58495,153.166 11.43492,334.63697 z" style="fill:url(#_Linear7)"
              id="path18"/>
        <path d="M 1181.87,-29.656 -260.55817,-75.874627 -423.02156,245.03353 Z" style="fill:url(#_Linear8)"
              id="path19"/>
     </g>
    <g id="fg" filter="url(#_shadow)" transform="matrix(1,0,0,1,7.70444,0.765627)">
          <g id="browser" style="display:inline">
               <path d="m 1845.5809,83.409 v 911.65 c 0,12.028 -9.7657,21.793 -21.785,21.793 H 80.808483 c -12.027283,0 -21.792957,-9.765 -21.792957,-21.793 V 83.409 c 0,-12.027 9.765674,-21.792 21.792957,-21.792 H 1823.7959 c 12.0193,0 21.785,9.765 21.785,21.792 z"
                     style="fill:#242424;stroke-width:1.26424" id="path20"/>
              <path d="m 678.3541,135.30458 h 1135.2127 c 17.6676,0 32.0109,14.34235 32.0109,32.00808 v 817.52805 c 0,17.66559 -14.3433,32.00929 -32.0109,32.00929 H 91.02422 c -17.665982,0 -32.008261,-14.3437 -32.008261,-32.00929 V 167.31266 c 0,-17.66573 14.342279,-32.00808 32.008261,-32.00808 H 241.9101 c 12.49355,-0.77876 22.39942,-11.17176 22.39942,-23.86 V 93.650154 c 0,-13.194455 10.71237,-23.906772 23.90686,-23.906772 h 343.82947 c 13.1958,0 23.90653,10.712317 23.90653,23.906772 v 17.794426 c 0,12.68824 9.90751,23.08124 22.40172,23.86 z"
                    style="display:inline;fill:#434343;stroke-width:0.241906" id="path21"/>
              <path d="M 61.015996,994.98736 V 216.54125 H 1843.5792 v 778.44611 c 0,10.96124 -8.9082,19.86324 -19.8713,19.86324 H 80.878864 c -10.963134,0 -19.862868,-8.902 -19.862868,-19.86324 z"
                    style="fill:#ffffff;stroke-width:0.712202" id="path22"/>
              <g id="window-controls">
                    <circle cx="206.09024" cy="101.95917" r="13.193279" style="fill:#07c621;stroke-width:0.234806"
                            id="circle24"/>
                  <circle cx="163.44214" cy="101.95917" r="13.193279"
                          style="clip-rule:evenodd;fill:#f0b900;fill-rule:evenodd;stroke-width:0.234806;stroke-linecap:round;stroke-linejoin:round;stroke-miterlimit:1.5"
                          id="circle23"/>
                  <circle cx="120.79363" cy="101.95917" r="13.193279"
                          style="clip-rule:evenodd;fill:#db4747;fill-rule:evenodd;stroke-width:0.234806;stroke-linecap:round;stroke-linejoin:round;stroke-miterlimit:1.5"
                          id="circle22"/>
               </g>
              <path d="m 291.11885,107.54595 c -0.4349,0 -0.79547,-0.14262 -1.07971,-0.42687 -0.28425,-0.28424 -0.42687,-0.64481 -0.42687,-1.07971 0,-0.41884 0.14262,-0.77439 0.42687,-1.06667 0.28424,-0.29328 0.64481,-0.43992 1.07971,-0.43992 0.41884,0 0.77439,0.14664 1.06767,0.43992 0.29228,0.29228 0.43892,0.64783 0.43892,1.06667 0,0.4349 -0.14664,0.79547 -0.43892,1.07971 -0.29328,0.28425 -0.64883,0.42687 -1.06767,0.42687 z m 0,-7.03073 c -0.4349,0 -0.79547,-0.14262 -1.07971,-0.42687 -0.28425,-0.284238 -0.42687,-0.644814 -0.42687,-1.079715 0,-0.418831 0.14262,-0.774385 0.42687,-1.066662 0.28424,-0.293282 0.64481,-0.439923 1.07971,-0.439923 0.41884,0 0.77439,0.146641 1.06767,0.439923 0.29228,0.292277 0.43892,0.647831 0.43892,1.066662 0,0.434901 -0.14664,0.795477 -0.43892,1.079715 -0.29328,0.28425 -0.64883,0.42687 -1.06767,0.42687 z m 3.51537,3.01317 v -2.00878 h 4.01756 v 2.00878 z m 7.23161,5.02195 -1.65725,-1.10483 c 0.46905,-0.72015 0.82863,-1.49353 1.07972,-2.32215 0.2511,-0.82962 0.37665,-1.69541 0.37665,-2.59936 0,-1.10483 -0.17979,-2.14236 -0.53936,-3.113609 -0.36057,-0.971245 -0.86679,-1.850086 -1.51964,-2.636524 l 1.5317,-1.280597 c 0.80351,0.95417 1.42723,2.029872 1.87117,3.226101 0.44294,1.197233 0.66491,2.465779 0.66491,3.804629 0,1.1219 -0.15869,2.18857 -0.47709,3.202 -0.31839,1.01242 -0.76132,1.95353 -1.33081,2.82434 z"
                    style="fill:#e8eaed;fill-rule:nonzero;stroke-width:1.00439" id="path25"/>
              <path d="m 612.12446,109.52967 -1.40113,-1.40113 5.60454,-5.60454 -5.60454,-5.604536 1.40113,-1.401134 5.60454,5.60454 5.60454,-5.60454 1.40113,1.401134 -5.60454,5.604536 5.60454,5.60454 -1.40113,1.40113 -5.60454,-5.60454 z"
                    style="fill:#e8eaed;fill-rule:nonzero;stroke-width:1.00081" id="path26"/>
              <g transform="translate(30,32)" id="g36">
                    <g transform="translate(1,1.98869)" id="g33">
                         <path d="m 200.94,152.92568 c -3.26009,0 -6.02234,-1.13147 -8.28527,-3.39441 -2.26294,-2.26294 -3.39441,-5.02518 -3.39441,-8.28527 0,-3.26009 1.13147,-6.02234 3.39441,-8.28527 2.26293,-2.26294 5.02518,-3.39441 8.28527,-3.39441 1.67895,0 3.28491,0.34601 4.81787,1.03949 1.53296,0.69494 2.84692,1.68626 3.94189,2.9754 v -4.01489 h 2.91992 v 10.21972 h -10.21972 v -2.91992 h 6.13183 c -0.77816,-1.36214 -1.84247,-2.43375 -3.19293,-3.21191 -1.35046,-0.77816 -2.81772,-1.16797 -4.39886,-1.16797 -2.43375,0 -4.50106,0.85116 -6.20483,2.55493 -1.70377,1.70377 -2.55493,3.77108 -2.55493,6.20483 0,2.43375 0.85116,4.50106 2.55493,6.20483 1.70377,1.70377 3.77108,2.55493 6.20483,2.55493 1.87313,0 3.56522,-0.53581 5.07336,-1.60596 1.50814,-1.07015 2.56661,-2.48193 3.17541,-4.23388 h 3.06592 c -0.6818,2.57975 -2.06876,4.68355 -4.16089,6.31433 -2.09212,1.63077 -4.47769,2.44543 -7.1538,2.44543 z"
                               style="fill:#e8eaed;fill-rule:nonzero;stroke-width:1.45996" id="path27"/>
                        <path d="m 148.05533,142.70596 h -17.77501 v -2.91992 h 17.77501 l -8.17577,-8.17578 2.08044,-2.04394 11.67968,11.67968 -11.67968,11.67968 -2.08044,-2.04394 z"
                              style="clip-rule:evenodd;opacity:0.25;fill:#e8eaed;fill-rule:nonzero;stroke-width:1.45996;stroke-linecap:round;stroke-linejoin:round;stroke-miterlimit:1.5"
                              id="path30"/>
                        <path d="m 76.884467,142.70596 8.175776,8.17578 -2.080443,2.04394 -11.67968,-11.67968 11.67968,-11.67968 2.080443,2.04394 -8.175776,8.17578 H 94.65948 v 2.91992 z"
                              style="opacity:0.25;fill:#e8eaed;fill-rule:nonzero;stroke-width:1.45996" id="path28"/>
                    </g>
                  <g transform="matrix(1.08454,0,0,0.922371,-14.4505,0.604822)" id="g34"
                     style="display:inline;stroke:none">
                         <path d="m 1203.22,154.634 c 0,17.058 -11.78,30.908 -26.29,30.908 H 279.663 c -14.508,0 -26.286,-13.85 -26.286,-30.908 0,-17.058 11.778,-30.907 26.286,-30.907 h 897.267 c 14.51,0 26.29,13.849 26.29,30.907 z"
                               style="fill:#242424;stroke:none;stroke-width:1.99px" id="path33"/>
                      <path d="m 285.24799,152.26587 c -0.60039,-0.017 -1.17176,-0.17111 -1.71311,-0.4623 -0.54235,-0.29219 -1.05568,-0.72147 -1.539,-1.28884 -0.66743,-0.80052 -1.18777,-1.75514 -1.56301,-2.86386 -0.37525,-1.10972 -0.56337,-2.24746 -0.56337,-3.41522 0,-1.3839 0.26317,-2.68474 0.78851,-3.90253 0.52534,-1.2178 1.23781,-2.27648 2.13839,-3.17707 0.90059,-0.90058 1.95927,-1.61305 3.17706,-2.13939 1.2178,-0.52534 2.51864,-0.78751 3.90254,-0.78751 1.3839,0 2.68474,0.26717 3.90253,0.80052 1.2178,0.53335 2.27648,1.25882 3.17707,2.17641 0.90058,0.9176 1.61405,1.9933 2.13939,3.2271 0.52534,1.2338 0.78751,2.55966 0.78751,3.97758 0,1.28384 -0.20814,2.48462 -0.62541,3.60234 -0.41727,1.11773 -1.00865,2.05934 -1.77615,2.82684 -0.4673,0.4673 -0.95862,0.82153 -1.47596,1.06369 -0.51733,0.24116 -1.04268,0.36224 -1.57602,0.36224 -0.3002,0 -0.60039,-0.037 -0.90059,-0.11208 -0.30019,-0.076 -0.60039,-0.18812 -0.90058,-0.33822 l -1.40091,-0.70045 c -0.20013,-0.10007 -0.41227,-0.17511 -0.63742,-0.22515 -0.22514,-0.05 -0.4633,-0.0751 -0.71346,-0.0751 -0.25016,0 -0.48732,0.025 -0.71246,0.0751 -0.22515,0.05 -0.43829,0.12508 -0.63842,0.22515 l -1.40091,0.70045 c -0.3172,0.16711 -0.62941,0.28819 -0.93761,0.36324 -0.3092,0.0751 -0.6214,0.10407 -0.93861,0.0871 z m 0.05,-2.0013 c 0.15009,0 0.30419,-0.017 0.4633,-0.05 0.1581,-0.033 0.3122,-0.0921 0.4623,-0.17511 l 1.40091,-0.70046 c 0.35022,-0.18311 0.71346,-0.3172 1.0887,-0.40025 0.37525,-0.0831 0.75449,-0.12509 1.13774,-0.12509 0.38325,0 0.7675,0.042 1.15075,0.12509 0.38325,0.0831 0.75049,0.21714 1.10072,0.40025 l 1.42592,0.70046 c 0.1501,0.083 0.3002,0.14209 0.45029,0.17511 0.1501,0.033 0.3002,0.05 0.4503,0.05 0.3172,0 0.6174,-0.0831 0.90058,-0.25017 0.28319,-0.1671 0.56737,-0.41727 0.85055,-0.75048 0.53335,-0.63342 0.95062,-1.39291 1.25082,-2.27648 0.30019,-0.88358 0.45029,-1.79317 0.45029,-2.72677 0,-2.23446 -0.7755,-4.13169 -2.32651,-5.6917 -1.55101,-1.55901 -3.44424,-2.33852 -5.67869,-2.33852 -2.23445,0 -4.12768,0.78351 -5.67869,2.35153 -1.55101,1.56802 -2.32651,3.46925 -2.32651,5.7037 0,0.95062 0.1541,1.87622 0.4633,2.77681 0.3082,0.90058 0.73748,1.65907 1.28784,2.27647 0.28318,0.33322 0.55836,0.57138 0.82553,0.71347 0.26718,0.14109 0.55036,0.21214 0.85056,0.21214 z m 4.57797,-4.02762 c 0.55036,0 1.02166,-0.19613 1.41392,-0.58738 0.39125,-0.39226 0.58738,-0.86356 0.58738,-1.41392 0,-0.13309 -0.012,-0.26717 -0.037,-0.40026 -0.025,-0.13309 -0.063,-0.26717 -0.11308,-0.40026 l 1.25082,-1.67609 c 0.1671,0.21714 0.3132,0.44629 0.43828,0.68745 0.12508,0.24216 0.22915,0.50533 0.3122,0.78851 h 2.05133 c -0.25016,-1.46795 -0.9296,-2.66873 -2.03832,-3.60234 -1.10972,-0.93361 -2.39756,-1.40091 -3.86551,-1.40091 -1.46795,0 -2.75979,0.47131 -3.87752,1.41392 -1.11772,0.94161 -1.79316,2.13839 -2.02631,3.58933 h 2.05133 c 0.23315,-0.90059 0.70846,-1.62606 1.42592,-2.17641 0.71747,-0.55036 1.52599,-0.82554 2.42658,-0.82554 0.28318,0 0.55036,0.025 0.80052,0.0751 0.25016,0.05 0.49232,0.12508 0.72547,0.22515 l -1.27583,1.72612 c -0.033,0 -0.0751,-0.004 -0.12508,-0.013 -0.05,-0.008 -0.0921,-0.012 -0.12508,-0.012 -0.55036,0 -1.02166,0.19613 -1.41292,0.58738 -0.39225,0.39226 -0.58838,0.86356 -0.58838,1.41392 0,0.55036 0.19613,1.02166 0.58838,1.41392 0.39126,0.39125 0.86256,0.58738 1.41292,0.58738 z"
                            style="clip-rule:evenodd;fill:#e8eaed;fill-rule:nonzero;stroke-width:1.00065;stroke-linecap:round;stroke-linejoin:round;stroke-miterlimit:1.5;stroke:none"
                            id="path34" transform="matrix(0.9220499,0,0,1.0841624,13.324082,-0.6557253)"/>
                    </g>
               </g>
          </g>
        <g transform="matrix(1,0,0,1,-85.7599,-66.7599)" id="g44">
               <g id="g37" transform="matrix(0.164363,0,0,0.164363,1790.4257,944.75365)">
                    <rect x="0" y="0" width="630" height="630" style="fill:#f7df1e" id="rect37"/>
                   <path d="m 423.2,492.19 c 12.69,20.72 29.2,35.95 58.4,35.95 24.53,0 40.2,-12.26 40.2,-29.2 0,-20.3 -16.1,-27.49 -43.1,-39.3 l -14.8,-6.35 c -42.72,-18.2 -71.1,-41 -71.1,-89.2 0,-44.4 33.83,-78.2 86.7,-78.2 37.64,0 64.7,13.1 84.2,47.4 l -46.1,29.6 c -10.15,-18.2 -21.1,-25.37 -38.1,-25.37 -17.34,0 -28.33,11 -28.33,25.37 0,17.76 11,24.95 36.4,35.95 l 14.8,6.34 c 50.3,21.57 78.7,43.56 78.7,93 0,53.3 -41.87,82.5 -98.1,82.5 -54.98,0 -90.5,-26.2 -107.88,-60.54 z m -209.13,5.13 c 9.3,16.5 17.76,30.45 38.1,30.45 19.45,0 31.72,-7.61 31.72,-37.2 v -201.3 h 59.2 v 202.1 c 0,61.3 -35.94,89.2 -88.4,89.2 -47.4,0 -74.85,-24.53 -88.81,-54.075 z"
                         style="fill-rule:nonzero" id="path37"/>
               </g>
            <g transform="matrix(0.205755,0,0,0.205755,1650.0967,942.95672)" id="g40">
                    <path d="m 512,50 v 412 c 0,27.596 -22.404,50 -50,50 H 50 C 22.404,512 0,489.596 0,462 V 50 C 0,22.404 22.404,0 50,0 h 412 c 27.596,0 50,22.404 50,50 z"
                          style="fill:#3178c6" id="path38"/>
                <path d="m 512,50 v 412 c 0,27.596 -22.404,50 -50,50 H 50 C 22.404,512 0,489.596 0,462 V 50 C 0,22.404 22.404,0 50,0 h 412 c 27.596,0 50,22.404 50,50 z"
                      style="fill:#3178c6" id="path39"/>
                <path d="m 316.939,407.424 v 50.061 c 8.138,4.172 17.763,7.3 28.875,9.386 11.112,2.086 22.823,3.129 35.135,3.129 11.999,0 23.397,-1.147 34.196,-3.442 10.799,-2.294 20.268,-6.075 28.406,-11.342 8.138,-5.266 14.581,-12.15 19.328,-20.65 4.747,-8.5 7.121,-19.007 7.121,-31.522 0,-9.074 -1.356,-17.026 -4.069,-23.857 -2.713,-6.831 -6.625,-12.906 -11.738,-18.225 -5.112,-5.319 -11.242,-10.091 -18.389,-14.315 -7.147,-4.224 -15.207,-8.213 -24.18,-11.967 -6.573,-2.712 -12.468,-5.345 -17.685,-7.9 -5.217,-2.556 -9.651,-5.163 -13.303,-7.822 -3.652,-2.66 -6.469,-5.476 -8.451,-8.448 -1.982,-2.973 -2.974,-6.336 -2.974,-10.091 0,-3.441 0.887,-6.544 2.661,-9.308 1.774,-2.764 4.278,-5.136 7.512,-7.118 3.235,-1.981 7.199,-3.52 11.894,-4.615 4.696,-1.095 9.912,-1.642 15.651,-1.642 4.173,0 8.581,0.313 13.224,0.938 4.643,0.626 9.312,1.591 14.008,2.894 4.695,1.304 9.259,2.947 13.694,4.928 4.434,1.982 8.529,4.276 12.285,6.884 v -46.776 c -7.616,-2.92 -15.937,-5.084 -24.962,-6.492 -9.025,-1.408 -19.381,-2.112 -31.066,-2.112 -11.895,0 -23.163,1.278 -33.805,3.833 -10.642,2.555 -20.006,6.544 -28.093,11.967 -8.086,5.424 -14.476,12.333 -19.171,20.729 -4.695,8.395 -7.043,18.433 -7.043,30.114 0,14.914 4.304,27.638 12.912,38.172 8.607,10.533 21.675,19.45 39.204,26.751 6.886,2.816 13.303,5.579 19.25,8.291 5.947,2.712 11.086,5.528 15.415,8.448 4.33,2.92 7.747,6.101 10.252,9.543 2.504,3.441 3.756,7.352 3.756,11.733 0,3.233 -0.783,6.231 -2.348,8.995 -1.565,2.764 -3.939,5.162 -7.121,7.196 -3.182,2.034 -7.147,3.624 -11.894,4.771 -4.748,1.148 -10.303,1.721 -16.668,1.721 -10.851,0 -21.597,-1.903 -32.24,-5.71 -10.642,-3.806 -20.502,-9.516 -29.579,-17.13 z M 232.78,284.082 H 297 V 243 H 118 v 41.082 h 63.906 V 467 h 50.874 z"
                      style="fill:#ffffff" id="path40"/>
               </g>
            <g id="g42" transform="matrix(0.172739,0,0,0.172739,1510.4819,942.58687)">
                    <path d="m 376,0 v 3.3 c 0,38.76 -31.42,70.17 -70.17,70.17 -38.76,0 -70.17,-31.42 -70.17,-70.17 V 0 H 0 V 612 H 612 V 0 Z"
                          style="fill:#654ff0;fill-rule:nonzero" id="path41"/>
                <path d="m 142.16,329.81 h 40.56 l 27.69,147.47 h 0.5 l 33.28,-147.47 h 37.94 l 30.06,149.28 h 0.59 l 31.56,-149.28 h 39.78 L 332.43,546.5 H 292.18 L 262.37,399.03 h -0.78 L 229.68,546.5 h -41 z m 287.69,0 h 63.94 l 63.5,216.69 H 515.45 L 501.64,498.28 H 428.8 l -10.66,48.22 h -40.75 z m 24.34,53.41 -17.69,79.5 h 55.06 l -20.31,-79.5 z"
                      style="fill:#ffffff;fill-rule:nonzero" id="path42"/>
               </g>
          </g>
        <g transform="matrix(4.92774,0,0,4.92774,-3029.93,-992.998)" id="g50" style="display:inline">
               <text x="758.48102" y="279.96799" style="font-size:22.323px;font-family:Inter-Regular, Inter"
                     id="text44">Creating a</text>
            <text x="758.48102" y="307.35999"
                  style="font-style:normal;font-variant:normal;font-weight:bold;font-stretch:normal;font-size:24px;font-family:Inter-Regular_Bold, Inter;-inkscape-font-specification:'Inter-Regular_Bold, Inter Bold'"
                  id="text45">web application</text>
            <text x="758.48102" y="334.75101" style="font-size:22.323px;font-family:Inter-Regular, Inter" id="text47">using</text>
            <text x="821.83002" y="334.75101" style="font-size:24px;font-family:Inter-Regular_Bold, Inter" id="text48">Rust</text>
            <text x="758.48102" y="362.14301" style="font-size:22.323px;font-family:Inter-Regular, Inter" id="text49">and</text>
            <text x="804.73999" y="362.14301"
                  style="fill-rule:evenodd;clip-rule:evenodd;stroke-linecap:round;stroke-linejoin:round;stroke-miterlimit:1.5;display:inline;font-size:24px;font-family:Inter-Regular_Bold, Inter;-inkscape-font-specification:'Inter-Regular_Bold, Inter Bold';font-weight:bold;font-style:normal;font-stretch:normal;font-variant:normal"
                  id="text80" transform="translate(-8.1173115e-6)">WebAssembly</text>
          </g>
        <g id="g218">
               <path d="m 388.45216,345.81832 c -123.99519,0 -224.91376,100.96615 -224.91376,224.91376 0,123.94762 100.96615,224.91377 224.91376,224.91377 123.94761,0 224.91377,-100.96615 224.91377,-224.91377 0,-123.94761 -100.96616,-224.91376 -224.91377,-224.91376 z m -0.33306,19.98387 a 14.750004,14.797584 0 0 1 14.36935,14.79759 14.797584,14.797584 0 0 1 -29.59516,0 14.797584,14.797584 0 0 1 15.22581,-14.79759 z m 33.87742,24.3613 A 182.09117,182.09117 0 0 1 546.65785,478.949 l -17.46211,39.39678 c -2.99758,6.80403 0.0952,14.79758 6.85162,17.84275 l 33.59194,14.89274 a 182.09117,182.09117 0 0 1 0.38065,31.59356 h -18.6992 c -1.85565,0 -2.61694,1.2371 -2.61694,3.04516 v 8.56452 c 0,20.1742 -11.37177,24.5992 -21.36371,25.69355 -9.51613,1.09436 -20.03146,-3.99677 -21.36372,-9.80161 -5.61451,-31.54598 -14.94032,-38.25485 -29.69033,-49.91211 18.31856,-11.60968 37.35082,-28.7863 37.35082,-51.72017 0,-24.78953 -16.98629,-40.39598 -28.54839,-48.05647 -16.27259,-10.70565 -34.25808,-12.84678 -39.1113,-12.84678 H 252.79971 a 182.09117,182.09117 0 0 1 101.87018,-57.47743 l 22.79114,23.88549 c 5.13871,5.37661 13.65565,5.61452 19.03226,0.42823 z m -210.3065,109.53067 a 14.797584,14.797584 0 0 1 14.36936,14.79759 14.797585,14.797585 0 0 1 -29.59517,0 14.797584,14.797584 0 0 1 15.22581,-14.79759 z m 352.81057,0.66613 a 14.797584,14.797584 0 0 1 14.36936,14.79759 14.797585,14.797585 0 0 1 -29.59517,0 14.797584,14.797584 0 0 1 15.22581,-14.79759 z m -324.9283,2.37903 H 265.361 v 116.28713 h -52.05324 a 182.09117,182.09117 0 0 1 -5.9,-69.51534 l 31.87904,-14.17904 c 6.80404,-3.04516 9.89678,-10.99113 6.85162,-17.79516 z m 107.62744,1.2371 h 61.42663 c 3.1879,0 22.41049,3.66371 22.41049,18.08065 0,11.94275 -14.75,16.22501 -26.88307,16.22501 h -57.00163 z m 0,83.55164 H 394.257 c 4.28226,0 22.98146,1.23709 28.92904,25.12258 1.85565,7.32742 5.99516,31.21291 8.80242,38.8734 2.80726,8.56452 14.17904,25.69355 26.31211,25.69355 h 76.79518 a 182.09117,182.09117 0 0 1 -16.84356,19.50807 l -31.26049,-6.70887 c -7.27984,-1.57016 -14.46452,3.09274 -16.03468,10.37258 l -7.42258,34.63872 a 182.09117,182.09117 0 0 1 -151.82988,-0.71371 l -7.42258,-34.63872 c -1.57016,-7.27984 -8.70726,-11.94274 -15.9871,-10.37258 l -30.59436,6.56613 a 182.09117,182.09117 0 0 1 -15.79678,-18.65162 h 148.78471 c 1.66532,0 2.80726,-0.28548 2.80726,-1.85564 v -52.62421 c 0,-1.52258 -1.14194,-1.85564 -2.80726,-1.85564 h -43.5363 z m -68.65889,120.5218 a 14.797584,14.797584 0 0 1 14.36936,14.79758 14.797585,14.797585 0 0 1 -29.59517,0 14.797584,14.797584 0 0 1 15.22581,-14.79758 z m 219.10893,0.66613 a 14.797584,14.797584 0 0 1 14.36936,14.79758 14.797585,14.797585 0 0 1 -29.59517,0 14.797584,14.797584 0 0 1 15.22581,-14.79758 z"
                     id="path1-7" style="display:inline;stroke-width:0.999998"/>
            <path d="M 600.80463,570.73208 A 212.35247,212.35247 0 0 1 388.45216,783.08456 212.35247,212.35247 0 0 1 176.09969,570.73208 212.35247,212.35247 0 0 1 388.45216,358.37961 212.35247,212.35247 0 0 1 600.80463,570.73208 Z m -3.99677,-20.50726 33.11614,20.50726 -33.11614,20.50727 28.45323,26.59758 -36.44678,13.65565 22.74355,31.64114 -38.49275,6.28065 16.17742,35.49517 -38.96855,-1.37984 8.94516,37.96936 -37.96937,-8.94516 1.37984,38.96856 -35.49517,-16.17743 -6.28064,38.49275 -31.64114,-22.74355 -13.65565,36.44678 -26.59759,-28.45323 -20.50726,33.11614 -20.50726,-33.11614 -26.59759,28.45323 -13.65565,-36.44678 -31.64113,22.74355 -6.28065,-38.49275 -35.49517,16.17743 1.37984,-38.96856 -37.96937,8.94516 8.94517,-37.96936 -38.96856,1.37984 16.17742,-35.49517 -38.49275,-6.28065 22.74355,-31.64114 -36.44678,-13.65565 28.45323,-26.59758 -33.11613,-20.50727 33.11613,-20.50726 -28.45323,-26.59759 36.44678,-13.65565 -22.74355,-31.64113 38.49275,-6.28065 -16.17742,-35.49517 38.96856,1.37984 -8.94517,-37.96936 37.96937,8.94516 -1.37984,-38.96856 35.49517,16.17742 6.28065,-38.49275 31.64113,22.74356 13.65565,-36.44679 26.59759,28.45324 20.50726,-33.11614 20.50726,33.11614 26.59759,-28.45324 13.65565,36.44679 31.64114,-22.74356 6.28064,38.49275 35.49517,-16.17742 -1.37984,38.96856 37.96937,-8.94516 -8.94516,37.96936 38.96855,-1.37984 -16.17742,35.49517 38.49275,6.28065 -22.74355,31.64113 36.44678,13.65565 z"
                  fill-rule="evenodd" stroke="#000000" stroke-linecap="round" stroke-linejoin="round" stroke-width="3"
                  id="path2-6" style="display:inline"/>
          </g>
     </g>
</svg>
